<svg width="94" height="29" viewBox="0 0 94 29" fill="none" xmlns="http://www.w3.org/2000/svg">
<path d="M21.2858 2.63239L21.2706 27.6564L16.3406 27.6534L16.3468 17.4874L5.16079 17.4806L5.1546 27.6466L0.224597 27.6436L0.239842 2.61957L5.16984 2.62257L5.16369 12.7206L16.3497 12.7274L16.3558 2.62939L21.2858 2.63239ZM34.2445 28.0723C32.4312 28.0712 30.8901 27.7302 29.6212 27.0495C28.3749 26.3687 27.4235 25.4275 26.7669 24.2257C26.1103 23.024 25.7824 21.6411 25.7834 20.0771C25.7843 18.5811 26.1705 17.2327 26.9419 16.0318C27.7133 14.831 28.7452 13.8796 30.0376 13.1777C31.33 12.4532 32.7696 12.0914 34.3563 12.0924C36.4869 12.0937 38.2319 12.718 39.5911 13.9655C40.973 15.1904 41.8673 16.9703 42.2739 19.3052L30.7116 22.9701L29.6592 20.3855L38.0249 17.5686L37.0387 18.01C36.8577 17.4205 36.5293 16.9103 36.0536 16.4794C35.6005 16.0258 34.9093 15.7987 33.98 15.7981C33.2773 15.7977 32.6539 15.9673 32.1097 16.307C31.5882 16.624 31.1799 17.0884 30.8848 17.7002C30.6125 18.2894 30.4761 18.992 30.4756 19.808C30.475 20.7373 30.6445 21.5194 30.9841 22.1543C31.3238 22.7665 31.7881 23.2315 32.3773 23.5492C32.9664 23.8668 33.6237 24.0259 34.349 24.0264C34.8703 24.0267 35.3691 23.9363 35.8452 23.7553C36.3439 23.5742 36.8314 23.3365 37.3076 23.0422L39.4134 26.5794C38.6198 27.0323 37.7583 27.3944 36.8288 27.6659C35.9219 27.9373 35.0605 28.0728 34.2445 28.0723ZM45.7277 27.6713L45.7441 0.845289L50.5041 0.848189L50.4877 27.6742L45.7277 27.6713ZM54.2679 17.5785L60.9937 27.6806L55.4517 27.6772L51.1382 20.2966L54.2679 17.5785ZM49.0623 23.5593L48.589 19.037L57.569 12.4465L60.4575 14.9983L49.0623 23.5593ZM65.6953 6.29745L70.4553 6.30035L70.4514 12.7603L74.0554 12.7625L74.0531 16.4685L70.4491 16.4663L70.4423 27.6863L65.6823 27.6834L65.6891 16.4634L63.3771 16.462L63.3794 12.756L65.6914 12.7574L65.6953 6.29745ZM76.5178 20.074C76.5187 18.5554 76.8709 17.1956 77.5743 15.9947C78.3003 14.7938 79.3096 13.8537 80.602 13.1745C81.8944 12.4726 83.3793 12.1222 85.0566 12.1232C86.7566 12.1243 88.2298 12.4765 89.476 13.1799C90.7222 13.8607 91.6737 14.8019 92.3303 16.0037C93.0095 17.2054 93.3487 18.5656 93.3478 20.0843C93.3469 21.603 93.006 22.9741 92.3253 24.1977C91.6672 25.3986 90.7146 26.35 89.4675 27.0519C88.2204 27.7538 86.7242 28.1043 84.9789 28.1032C83.3469 28.1022 81.8851 27.784 80.5935 27.1485C79.3245 26.5131 78.3278 25.5945 77.6032 24.3927C76.8786 23.1909 76.5168 21.7514 76.5178 20.074ZM81.3118 20.111C81.3113 20.8816 81.4695 21.5844 81.7865 22.2193C82.1034 22.8314 82.5338 23.319 83.0776 23.682C83.6214 24.045 84.2333 24.2267 84.9133 24.2272C85.6613 24.2276 86.3074 24.0467 86.8516 23.6843C87.3958 23.322 87.8154 22.8349 88.1105 22.2231C88.4055 21.5886 88.5533 20.886 88.5538 20.1154C88.5542 19.322 88.4073 18.6193 88.113 18.0071C87.8188 17.3949 87.3997 16.9073 86.8559 16.5443C86.3122 16.1813 85.6663 15.9996 84.9183 15.9992C84.2383 15.9987 83.6262 16.1797 83.0819 16.542C82.5377 16.9044 82.1068 17.3914 81.789 18.0033C81.4713 18.6151 81.3122 19.3176 81.3118 20.111Z" fill="#0D0E43"/>
</svg>
