<svg width="25" height="25" viewBox="0 0 25 25" fill="none" xmlns="http://www.w3.org/2000/svg">
<g clip-path="url(#clip0_15_22)">
<g filter="url(#filter0_d_15_22)">
<path d="M21.7168 20.9977L18.0091 17.3155C19.4502 15.5207 20.149 13.2421 19.9617 10.948C19.7745 8.65384 18.7153 6.51867 17.0021 4.98149C15.2889 3.44431 13.0518 2.62195 10.7509 2.68351C8.44997 2.74507 6.26008 3.68586 4.63151 5.31245C3.00294 6.93904 2.05947 9.12778 1.99511 11.4286C1.93075 13.7295 2.75038 15.9675 4.28547 17.6826C5.82057 19.3977 7.95444 20.4595 10.2483 20.6495C12.5422 20.8396 14.8217 20.1436 16.6182 18.7046L20.296 22.3869C20.3889 22.4806 20.4994 22.5551 20.6213 22.6059C20.7431 22.6568 20.8738 22.683 21.0058 22.6831C21.1378 22.6832 21.2685 22.6571 21.3904 22.6064C21.5123 22.5557 21.6229 22.4814 21.716 22.3877C21.8963 22.2014 21.9972 21.9522 21.9974 21.6929C21.9975 21.4336 21.8969 21.1843 21.7168 20.9977ZM11.0082 18.7012C9.62374 18.7004 8.27061 18.289 7.11994 17.5191C5.96926 16.7492 5.07272 15.6554 4.54369 14.376C4.01465 13.0966 3.87689 11.6891 4.14781 10.3314C4.41873 8.97368 5.08618 7.72681 6.06574 6.74844C7.04531 5.77007 8.29299 5.10414 9.65102 4.83487C11.0091 4.5656 12.4164 4.70508 13.6952 5.23568C14.974 5.76627 16.0667 6.66414 16.8351 7.81575C17.6036 8.96737 18.0133 10.321 18.0125 11.7055C18.0113 13.562 17.2728 15.342 15.9592 16.654C14.6457 17.9659 12.8647 18.7023 11.0082 18.7012Z" fill="url(#paint0_linear_15_22)"/>
<path d="M17.6192 17.0024L17.3375 17.3532L17.6567 17.6702L21.3601 21.3481C21.4483 21.4411 21.4975 21.5644 21.4974 21.6926C21.4973 21.8212 21.4477 21.9448 21.3589 22.0377C21.3129 22.0835 21.2584 22.1198 21.1984 22.1448C21.1375 22.1701 21.0721 22.1831 21.0061 22.1831C20.9401 22.183 20.8747 22.1699 20.8138 22.1445C20.7529 22.1191 20.6976 22.0819 20.6512 22.035L20.6497 22.0335L16.972 18.3513L16.6553 18.0342L16.3056 18.3144C14.609 19.6734 12.4561 20.3308 10.2896 20.1513C8.12317 19.9717 6.10785 18.969 4.65803 17.3492C3.20822 15.7294 2.43413 13.6156 2.49491 11.4426C2.5557 9.26959 3.44675 7.20244 4.98484 5.66622C6.52294 4.13 8.59117 3.24147 10.7643 3.18333C12.9374 3.12519 15.0501 3.90186 16.6682 5.35365C18.2862 6.80543 19.2865 8.82197 19.4634 10.9886C19.6403 13.1553 18.9803 15.3074 17.6192 17.0024ZM6.8419 17.9347C8.07476 18.7595 9.52455 19.2003 11.0079 19.2012C12.997 19.2024 14.9052 18.4134 16.3125 17.0077C17.7199 15.6021 18.5113 13.6949 18.5125 11.7058C18.5134 10.2224 18.0744 8.77209 17.251 7.53822C16.4277 6.30435 15.2569 5.34234 13.8868 4.77385C12.5167 4.20536 11.0088 4.05592 9.55378 4.34442C8.09874 4.63292 6.76194 5.34641 5.7124 6.39467C4.66287 7.44292 3.94775 8.77886 3.65748 10.2335C3.3672 11.6882 3.51481 13.1963 4.08163 14.5671C4.64845 15.9379 5.60903 17.1098 6.8419 17.9347Z" stroke="black"/>
</g>
</g>
<defs>
<filter id="filter0_d_15_22" x="-2.00842" y="2.68018" width="28.0058" height="28.0029" filterUnits="userSpaceOnUse" color-interpolation-filters="sRGB">
<feFlood flood-opacity="0" result="BackgroundImageFix"/>
<feColorMatrix in="SourceAlpha" type="matrix" values="0 0 0 0 0 0 0 0 0 0 0 0 0 0 0 0 0 0 127 0" result="hardAlpha"/>
<feOffset dy="4"/>
<feGaussianBlur stdDeviation="2"/>
<feComposite in2="hardAlpha" operator="out"/>
<feColorMatrix type="matrix" values="0 0 0 0 0 0 0 0 0 0 0 0 0 0 0 0 0 0 0.25 0"/>
<feBlend mode="normal" in2="BackgroundImageFix" result="effect1_dropShadow_15_22"/>
<feBlend mode="normal" in="SourceGraphic" in2="effect1_dropShadow_15_22" result="shape"/>
</filter>
<linearGradient id="paint0_linear_15_22" x1="1.99707" y1="2.6748" x2="25.4381" y2="17.0861" gradientUnits="userSpaceOnUse">
<stop stop-color="#F3F9FF"/>
<stop offset="1" stop-color="#F1F0FF"/>
</linearGradient>
<clipPath id="clip0_15_22">
<rect width="24" height="24" fill="white" transform="translate(0.0192871 0.69458) rotate(0.0349052)"/>
</clipPath>
</defs>
</svg>
